<svg width="2808" height="3123" viewBox="0 0 2808 3123" fill="none" xmlns="http://www.w3.org/2000/svg">
<g clip-path="url(#clip0_39_2497)">
<path d="M1488.26 941.796C1206.76 955.257 940.17 955.587 690.427 946.751C682.127 948.279 662.802 950.55 645.417 939.815C619.65 923.877 608.294 885.561 621.467 846.956C619.609 626.102 617.792 405.208 615.934 184.354C617.255 173.371 620.93 157.103 631.997 141.331C662.471 97.8539 720.282 99.2164 726.022 99.4229C906.351 78.6133 1086.68 57.8038 1267.01 36.9942C1425.25 32.8654 1546.69 28.4062 1631.38 20.8916C1659.38 18.4143 1705.63 32.4938 1799.69 33.1957C1807.79 33.237 1836.9 34.4343 1863 56.5238C1891.99 81.0494 1896.53 113.791 1897.35 121.058C1907.93 384.192 1918.5 647.325 1929.03 910.458C1787.31 923.794 1640.3 934.488 1488.26 941.755V941.796Z" fill="white"/>
<path d="M1427.72 3100.17C1424.42 3099.55 1423.92 3099.51 1424.92 3100.09L1437.26 3107.52L1395.89 3108.88L1368.88 3109.83C1361.86 3110.08 1349.22 3103.02 1344.19 3098.47C1321.93 3113.09 1310.78 3115.36 1285.55 3111.98C1277.95 3110.94 1263.46 3112.84 1254.83 3110.24C1253.42 3109.83 1251.69 3111.19 1252.52 3112.18L1257.31 3117.8L1221.42 3116.85C1240.54 3117.34 1092.01 3119.7 1126.69 3115.82L1082.18 3120.77C1066.69 3122.51 1046.38 3115.65 1033.45 3117.72C1018.13 3120.15 1008.1 3121.47 994.389 3121.64L945.787 3122.26C923.943 3122.55 902.8 3123.66 881.576 3122.46L800.847 3118C787.261 3117.26 774.873 3112.55 759.842 3115.16C735.685 3119.33 711.859 3119.37 684.399 3117.39L708.308 3106.36C690.139 3108.8 677.007 3112.02 667.51 3102.56L661.068 3109.91C659.788 3111.36 656.361 3109.95 648.185 3109.17C644.675 3106.2 645.666 3107.89 651.571 3115.69C644.964 3117.34 636.829 3113.38 629.809 3106.11L613.994 3111.98C604.661 3110.61 595.494 3110.53 585.047 3110.2L542.927 3108.96C534.627 3106.53 536.651 3105.37 548.378 3101.86L514.93 3088.61C503.12 3096.99 493.54 3099.59 481.772 3097.73C480.492 3092.69 478.633 3088.85 480.574 3087.74C496.72 3078.37 496.555 3091.58 500.147 3080.93C500.767 3079.11 491.723 3075.48 490.154 3076.63L452.536 3104.67L463.355 3085.63L431.641 3097.32L399.928 3083.32L409.962 3078.66C411.82 3077.79 410.54 3069.41 407.237 3069.99L338.442 3081.75L345.751 3071.51C346.866 3069.94 344.14 3064.62 342.447 3065.32L330.514 3070.32L327.128 3063.92C324.98 3059.83 304.912 3063.09 303.673 3059.46L300.493 3050.21C289.014 3060.12 273.529 3056.53 264.857 3046L302.062 3044.06C285.875 3034.15 266.798 3048.39 253.171 3021.35L302.847 3031.13L292.647 3009.37L330.761 3000.25L334.23 3006.19C334.973 3007.43 339.805 3006.36 339.722 3004.91L339.35 2996.62C348.848 3000.62 357.107 3002.85 366.563 3001.57L402.86 2996.7C479.335 2986.5 427.553 3007.8 521.207 2988.28C424.952 2877.13 377.051 2696.45 379.529 2550.7C381.676 2426.67 464.098 2369.73 576.747 2350.65C640.669 2339.84 705.417 2354.82 751.377 2401.85C783.049 2434.26 784.866 2399.66 864.356 2407.55C887.646 2385.71 908.747 2361.55 930.921 2336L799.401 2325.38C737.337 2320.39 690.799 2277.28 686.298 2214.65L641.743 1591.27C600.367 1589.91 564.359 1568.02 550.525 1528.59L529.796 1469.55C454.188 1552.46 335.345 1589.21 226.826 1556.63C159.393 1536.4 122.849 1475.29 131.974 1406.42C142.339 1327.89 191.726 1262.57 258.704 1220.87C219.641 1137.84 227.073 1055.63 300.7 997.455C325.352 977.966 352.193 967.768 382.337 953.978L300.7 677.013C292.565 649.39 283.274 624.782 270.886 598.192C139.903 598.523 98.857 504.26 63.8401 396.786C40.1789 323.539 20.069 251.986 3.38639 176.551C-0.53649 158.838 -1.48624 137.864 2.84958 121.307C7.88739 102.066 27.7909 92.1984 42.161 88.276C63.8814 82.3717 81.9679 87.7805 98.5266 103.801C105.67 81.5046 118.471 67.4251 136.062 62.8008C156.461 57.4333 174.052 64.7001 188.134 80.844C191.478 59.1674 203.206 46.244 221.251 40.0094C238.14 34.1464 257.672 41.4545 273.9 52.4786C285.173 33.1968 301.03 17.0529 325.6 17.1354C344.636 17.218 371.766 28.2008 381.305 51.818C425.654 161.811 455.344 248.724 483.63 365.571C493.169 404.92 494.573 446.126 480.822 484.359C459.432 543.815 408.765 543.196 416.445 572.882C448.407 696.707 482.143 816.651 521.29 939.939C563.822 946.752 596.403 971.608 608.914 1011.66L625.019 961.946C614.943 945.596 606.189 928.75 604.785 906.743C590.539 683.619 581.124 463.137 583.519 239.847C583.891 206.486 587.442 174.9 602.266 146.163C624.482 103.14 668.005 77.706 715.204 70.0676C776.36 60.1996 833.469 53.1805 896.07 47.3175C1143 24.1545 1386.55 9.08412 1635.14 1.36312C1788.46 -3.38509 1937.12 4.17076 2088.05 24.7739C2157.75 34.3116 2240.75 44.9228 2274.57 107.228C2290.8 137.121 2290.92 167.55 2292.7 201.82L2323.79 807.815L2334.53 1122.11C2408.9 1145.89 2490.45 1110.3 2524.73 1040.56C2505.2 1030.4 2486.37 1020.45 2475.34 1004.35C2453.41 972.351 2460.43 931.847 2480.3 901.128C2428.72 866.156 2354.6 819.624 2345.72 755.461C2340.02 714.42 2360.38 680.522 2396.06 664.585C2397.5 641.463 2399.03 620.199 2405.22 600.298C2416.62 563.799 2452.38 544.558 2489.54 552.816C2513.78 558.183 2535.88 569.455 2556.11 586.012C2604.8 559.628 2640.51 593.898 2678.38 611.735C2710.05 626.64 2746.89 624.906 2771.17 660.373C2815.89 725.651 2820.51 810.334 2781.57 880.979C2795.16 916.487 2800.98 954.556 2786.69 989.445C2772.41 1024.33 2742.1 1041.84 2708.19 1051.58C2704.15 1082.55 2694.69 1114.1 2680.03 1142.75C2610.87 1277.93 2482.9 1313.31 2341.01 1305.3L2361.2 2120.3C2364.05 2235.75 2270.69 2258.83 2176.79 2282.82C2075.78 2308.62 1975.77 2321.17 1866.18 2330.21L2019.29 2488.19C2065.58 2492.27 2116.71 2502.72 2139.33 2552.55C2286.46 2491.08 2249.26 2434.39 2320.45 2380.42C2399.32 2320.64 2504.58 2300.9 2599.43 2333.52C2655.38 2352.76 2687.75 2401.81 2691.84 2460.11C2699.4 2568.04 2640.47 2683.44 2571.47 2764.82C2476.12 2877.21 2330.73 2990.92 2188.27 3028.08L2233.44 3032.04C2237.9 3032.41 2249.38 3029.65 2253.8 3029.73C2255.12 3029.73 2256.86 3036.13 2255.62 3036.5L2246.95 3038.98C2248.97 3039.64 2258.59 3040.67 2261.77 3040.09L2290.26 3034.93C2296.66 3033.78 2306.24 3035.51 2308.72 3039.8C2309.71 3041.54 2313.06 3047.07 2313.3 3046L2314.46 3041.41L2315.82 3036.38L2321.4 3035.67C2321.93 3035.59 2323.5 3036.17 2330.48 3038.23C2331.14 3036.34 2330.48 3038.23 2327.39 3046.95C2333.17 3049.71 2350.8 3053.02 2358.11 3050.37L2383.38 3041.21C2393.58 3042.53 2391.51 3043.77 2379.54 3048.23L2405.02 3049.71L2412.57 3061.27C2414.84 3064.7 2440.16 3064.74 2425.83 3056.73L2445.32 3046.41C2448.95 3050.37 2452.92 3054.75 2451.02 3052.64L2443.92 3059.91C2442.39 3068.33 2436.61 3073.45 2429.3 3075.19L2398.45 3082.45L2392.3 3075.72L2388.42 3080.1C2388.33 3082.12 2384.21 3089.23 2382.39 3088.94L2350.51 3084.15C2338.74 3085.68 2326.56 3086.5 2315.49 3086.71L2261.44 3087.74L2225.27 3090.46L2191.86 3087.45L2209.57 3094.47C2204.04 3095.71 2194.34 3095.21 2185.67 3092.03C2184.47 3082.21 2214.82 3073.91 2203.34 3073.5L2197.43 3073.29L2165.93 3072.17L2175.92 3086.01C2167.08 3095.09 2155.52 3092.69 2144.79 3090.09C2138.43 3088.57 2123.23 3095.67 2119.68 3091.17C2127.48 3084.44 2128.39 3083.36 2117.41 3084.4L2108.86 3093.48C2106.13 3096.37 2097.38 3094.43 2092.01 3094.39L2018.01 3093.77C2006.2 3093.69 1993.78 3090.88 1986.76 3098.68C1985.6 3099.96 1981.18 3101.45 1980.89 3100.13C1980.6 3098.81 1979.57 3094.55 1979.57 3094.64L1953.27 3096.08C1938.24 3096.91 1921.8 3103.26 1908.38 3092.45L1892.65 3100.46C1888.48 3102.56 1879.35 3095.25 1874.56 3092.57L1866.14 3099.75C1864.03 3101.53 1859.12 3100.04 1855.07 3099.96L1826.04 3099.55L1801.64 3099.34L1767.11 3100.13C1752.62 3100.46 1739.37 3101.86 1722.15 3099.71L1728.96 3081.42L1712.77 3099.59L1704.68 3104.09C1702.82 3105.12 1698.53 3098.81 1699.02 3096.7L1700.8 3088.9C1701.05 3087.82 1698.49 3088.48 1697.7 3089.27C1684.24 3101.98 1687.34 3100.95 1660.62 3104.05L1667.43 3096.45C1668.51 3095.25 1671.4 3092.65 1669.87 3092.16C1646.95 3085.06 1671.56 3102.48 1623.33 3101.28C1625.52 3101.32 1562.46 3111.19 1579.81 3099.92L1587.69 3094.8C1586.83 3093.31 1584.72 3089.64 1582.82 3090.59L1570.64 3096.74C1569.03 3097.57 1564.32 3100.17 1564.32 3099.92C1564.32 3099.67 1563.37 3096.41 1562.26 3092.74L1535.95 3087.24L1532.86 3081.55C1532.15 3080.23 1526.83 3087.2 1528.11 3087.95L1549.21 3100.58C1551.98 3095.5 1549.87 3099.38 1547.93 3102.93L1517.17 3098.97C1497.67 3107.43 1482.52 3102.65 1470.5 3087.86L1463.61 3089.93C1461.46 3090.55 1459.52 3090.51 1460.35 3091.66C1461.34 3092.98 1463.9 3096.66 1465.22 3097.11L1472.07 3099.47C1473.39 3099.92 1466.7 3105.95 1465.34 3105.74L1427.97 3100.21L1427.72 3100.17ZM1440.9 925.86L1903.47 910.666C1916.1 910.253 1929.36 905.546 1928.99 890.186L1922.63 642.371C1918.13 466.77 1915.44 294.513 1897.31 121.101C1891.78 68.2096 1848.83 35.3025 1799.65 33.1968C1729.46 30.1827 1664.75 31.8755 1593.39 33.9812C1337.21 41.6197 1084.99 59.7867 830.248 84.3535C784.66 88.7714 743.696 94.717 700.462 104.957C641.743 118.83 618.825 177.088 618.495 234.769C617.256 458.595 627.001 679.036 640.876 902.201C642.651 930.938 660.16 947.578 690.428 946.711L1440.9 925.819V925.86ZM2010.54 888.205L1997.9 465.49L1983.08 118.582C1977.75 88.5237 1968.13 58.3416 1940.34 43.6841C1917.92 31.8755 1888.81 31.8755 1862.96 34.1051C1893.1 55.2037 1916.89 85.4683 1921.84 125.807C1940.96 281.218 1948.81 435.225 1950 593.114L1952.36 908.973L1991.09 910.5C2000.67 910.872 2010.95 902.036 2010.54 888.205ZM26.6759 152.439C50.1719 252.068 79.449 346.455 115.333 440.593C182.972 618.011 283.398 529.735 298.635 570.446L321.429 631.471L417.478 944.275C444.566 938.783 468.64 942.623 490.485 958.932L369.453 532.419C430.444 517.142 463.809 466.894 457.078 408.264C452.825 371.31 443.575 337.041 434.491 300.17C411.655 220.317 386.921 143.19 359.997 65.0717C353.721 46.8221 333.404 37.4908 316.474 42.6519C302.93 46.8221 297.396 59.6629 301.567 73.2469L374.945 313.052C378.373 324.283 370.197 339.642 361.236 340.839C354.092 341.789 339.928 334.44 337.121 325.273L261.595 79.9356C257.094 65.3607 242.724 57.2268 229.179 60.117C219.558 62.1402 207.252 79.6053 211.299 93.5609L282.365 337.206C285.462 347.858 275.428 362.103 267.376 362.516C260.769 362.846 247.059 356.364 244.706 348.313L174.176 105.576C169.51 89.4733 157.989 79.9356 142.256 83.1562C131.149 85.427 118.1 104.213 122.601 119.655L193.295 362.722C196.103 372.343 186.523 385.844 179.545 386.381C171.121 387.042 158.691 380.683 155.718 370.774L85.1888 136.79C79.16 116.724 68.7127 106.071 47.4879 110.82C31.5073 114.37 21.3904 130.06 26.6759 152.48V152.439ZM2296.54 1296.67C2252.02 1286.43 2216.51 1274.13 2183.11 1255.8C2142.18 1230.82 2123.19 1192.5 2128.64 1145.27C2132.98 1107.49 2159.32 1069.71 2200.99 1070.45C2233.48 1071.03 2257.56 1090.15 2291.67 1106.91L2280.43 816.156L2244.84 157.971C2243.02 124.321 2226.42 90.6707 2193.97 80.5137C2121.29 57.8049 2047.54 49.4232 1969.82 43.3538C1991.3 67.1774 2002.69 94.3041 2004.72 126.014L2021.73 396.414L2041.92 1009.43L2053.03 1481.44L2077.56 2259.03C2140.28 2251.68 2202.18 2240.12 2259.42 2216.92C2298.23 2201.19 2319.21 2170.68 2318.14 2128.6L2296.54 1296.67ZM2500.16 684.94C2508 655.377 2519.07 629.2 2541.41 604.386C2518.29 580.479 2460.43 557.44 2436.94 589.398C2420.38 611.941 2416.62 640.307 2426.37 664.213C2453.7 664.708 2475.75 671.645 2500.12 684.94H2500.16ZM2587.99 793.116C2567.42 733.95 2596.54 666.443 2652.94 633.288C2631.06 602.858 2583.36 592.825 2554.25 621.066C2516.39 657.731 2508.66 719.168 2532.32 764.751C2543.52 786.345 2564.04 798.649 2587.99 793.116ZM2552.39 814.463C2546.98 871.565 2587.41 909.592 2639.32 914.134C2713.64 920.657 2774.76 870.863 2779.01 795.387C2781.45 752.365 2773.85 709.465 2746.68 675.898C2725.29 649.473 2690.81 635.889 2659.59 652.198C2588.2 689.564 2585.76 790.309 2624.91 807.733C2640.02 814.463 2656.66 813.265 2670.04 806.246C2701.05 789.979 2706.13 758.929 2710.75 723.793C2740.44 753.521 2711.7 814.876 2671.2 831.102C2633.62 846.214 2606.28 815.495 2552.43 814.422L2552.39 814.463ZM2756.34 900.674C2711.04 935.893 2651.5 949.188 2598.93 926.562C2556.98 908.519 2534.64 865.331 2531.91 820.532C2531.17 808.269 2526.79 795.14 2517.83 786.593C2472.2 809.013 2403.41 784.735 2421.95 775.197C2434.83 768.55 2476.54 785.519 2508.79 769.788L2498.92 715.576C2477.49 683.247 2430.29 670.943 2396.72 690.72C2367.52 707.938 2364.63 746.584 2378.71 775.527C2402.09 823.505 2478.81 872.143 2527.49 891.425C2531.13 892.87 2536.91 901.706 2534.8 904.761C2527.49 915.373 2493.34 904.555 2487.69 946.256C2483.39 977.801 2504.99 1003.94 2535.75 1014.71C2596.08 1035.85 2732.06 1044.44 2760.76 976.108C2771.08 951.5 2768.28 923.589 2756.34 900.632V900.674ZM679.898 1586.52L724.991 2212.87C727.84 2252.22 759.512 2278.77 797.502 2281.95C973.082 2296.65 1144.49 2300.16 1321.39 2299.91C1522.74 2299.62 1719.01 2298.38 1919.82 2282.07C1946.04 2279.93 1962.23 2245.08 1961.57 2219.31L1931.42 1052.58L1929.94 959.923C1929.77 948.486 1915.73 941.467 1905.12 941.797L1384.94 958.354L1048.69 968.057L675.356 975.448C660.449 975.737 646.244 989.486 647.441 1006.54L667.138 1295.64L718.879 1439C736.842 1495.89 749.643 1554.27 679.939 1586.48L679.898 1586.52ZM1968.01 2276.62C1990.43 2276.5 2013.02 2273.03 2029.82 2259.03C2040.4 2250.24 2046.01 2232.03 2045.56 2215.23L2011.74 966.158C2004.39 929.122 1967.06 942.128 1937.62 942.086C1941.79 958.437 1952.89 976.645 1953.47 993.656L1961.48 1217.48L1987.25 2066.71C1988.9 2121.38 1987.25 2170.34 1984.98 2223.61C1984.15 2242.64 1976.8 2258.95 1968.01 2276.62ZM389.316 1196.59C371.146 1191.31 457.326 1147.33 488.833 1141.22C505.144 1138.08 518.771 1137.71 534.049 1136.02C541.317 1115.54 535.908 1095.89 523.891 1079.17C492.425 1035.36 407.072 1074.71 367.43 1097.74C361.566 1101.17 353.101 1102.25 347.361 1098.49C373.872 1064.8 451.834 1035.56 496.224 1038.33C493.54 1015.7 485.736 994.647 469.301 978.379C440.85 950.262 354.257 998.446 325.476 1017.64C281.374 1047.08 258.663 1097.33 267.706 1150.84C284.141 1248.04 356.859 1311.54 457.078 1334.29C384.815 1349.4 318.497 1299.56 275.222 1240.11C246.44 1287.43 305.325 1362.82 349.591 1385.11C391.174 1406.05 466.534 1405.1 495.605 1363.11C518.358 1330.24 473.472 1290.85 438.001 1282.55C479.17 1266.78 520.877 1262.94 551.186 1231.27C561.055 1220.95 569.025 1205.51 565.639 1191.47C563.368 1182.14 552.012 1168.14 540.491 1163.48C480.657 1139.2 409.673 1202.49 389.316 1196.59ZM567.456 1104.23C596.32 1073.34 593.76 1032.26 572.865 999.189C557.38 974.663 526.823 960.955 501.964 974.539C512.329 997.042 515.963 1022.97 519.762 1043.7C539.872 1060.25 557.545 1078.55 567.456 1104.23ZM621.426 1186.72L615.521 1071.2L592.645 1108.85C588.928 1137.92 605.941 1165.62 621.426 1186.72ZM2539.92 1103.11C2528.69 1107.7 2518 1113.35 2509.04 1119.79C2469.43 1148.2 2426.74 1163.77 2377.85 1165.71C2368.93 1229.29 2528.4 1152.37 2539.92 1103.11ZM2329.82 1165.25C2325.77 1167.44 2324.54 1179.95 2328.21 1182.72C2331.89 1185.48 2341.01 1187.01 2344.44 1183.96C2348.45 1180.36 2350.34 1169.88 2346.75 1167.07C2343.74 1164.72 2333.21 1163.44 2329.82 1165.29V1165.25ZM576.623 1504.36C583.023 1525 598.302 1539.95 610.897 1546.8C629.768 1557.12 652.52 1552.99 670.318 1544.86C689.272 1536.23 702.857 1519.96 698.769 1496.92C694.681 1473.89 688.57 1448 679.692 1424.63L587.937 1182.22C586.822 1209.14 589.011 1230.03 569.892 1246.96L567.538 1284.66L547.098 1262.73L509.356 1288.04L576.582 1504.32L576.623 1504.36ZM178.099 1442.09C193.254 1400.27 206.22 1365.21 238.057 1338.75C240.37 1335.24 242.476 1327.52 241.733 1323.64C236.943 1298.53 149.442 1389.08 178.099 1442.09ZM439.281 1456.67C437.505 1454.44 431.6 1452.7 429.205 1454.23C427.388 1455.39 424.209 1459.43 423.052 1461.62C405.379 1494.03 373.913 1506.88 341.869 1521.45C375.854 1526.82 454.89 1475.99 439.281 1456.67ZM1729.29 2997.4C1789.45 3010.32 1758.81 2991.45 1787.31 2997.07C1803.66 3000.29 1820.92 3000.29 1838.59 2998.1C1845.16 3000.37 1846.44 3001.61 1836.78 3001.41C1829.01 3007.52 1826 3011.69 1834.84 3011.52C1871.71 3003.88 1903.8 2999.79 1937.12 3005.58L1919.53 3011.73C1931.63 3012.92 1944.1 3014.41 1953.39 3014L1990.84 3012.26C1999.89 3011.85 2010.25 3013.63 2020.9 3014.53L2053.9 3017.3L2097.22 3020.93C2064.76 2994.1 2051.96 2966.81 2035.36 2933.15C2010.46 2882.74 1986.96 2831.21 1969.12 2778.2C1934.93 2768.58 1898.47 2755.82 1878.77 2724.27C1860.23 2694.59 1861.92 2660.44 1865.43 2625.8C1777.52 2527.49 1685.68 2433.52 1590.75 2344.54L1189.21 2343.92C1177.69 2343.92 1170.3 2348.79 1166.05 2358.46C1096.84 2517.34 1017.35 2617.05 832.767 2644.5C901.768 2810.4 916.51 2725.55 995.257 2794.05C1043.12 2835.67 1071.73 2892.49 1075.37 2958.13L1188.01 2961.81L1362.73 2970.85C1380.57 2971.76 1398.36 2971.55 1416.99 2971.06C1439.53 2970.48 1460.59 2973.58 1481.98 2974.53L1515.35 2975.97L1550.16 2978.99C1559.37 2979.77 1575.64 2986.75 1583.44 2984.15C1599.17 2978.9 1612.35 2977.62 1627.46 2987.99C1631.38 2985.34 1633.2 2982 1635.55 2982.66L1648.77 2986.33L1680.65 2989.02C1692.17 2990.01 1705.46 2990.34 1716.28 2989.84L1747.34 2988.44L1729.29 2997.36V2997.4ZM2358.4 2515.85C2399.9 2469.11 2440.74 2428.44 2489.46 2392.48C2510.56 2378.81 2530.14 2367.83 2552.48 2356.72C2469.85 2338.1 2357.41 2364.15 2310.5 2432.86C2293.32 2458 2288.57 2487.32 2302.86 2515.31C2307.23 2523.86 2321.81 2532.45 2331.64 2532.41C2339.15 2532.41 2350.88 2524.27 2358.4 2515.81V2515.85ZM2116.05 2986.71L2207.1 2865.81L2368.68 2640.38C2408.82 2584.39 2448.21 2531.58 2496.19 2482.69C2535.63 2443.92 2576.72 2413.87 2631.92 2391.86C2619.17 2374.35 2598.85 2366.22 2576.39 2363C2529.1 2383.77 2489.96 2412.26 2451.8 2446.48C2398.49 2494.34 2358.64 2550.24 2315.04 2607.01L2184.1 2777.54C2145.82 2827.37 2112 2876.14 2078.3 2929.81C2084.54 2953.14 2095.03 2973 2116.05 2986.71ZM1035.68 2928.94C1017.1 2945.91 1002.11 2955.08 981.093 2962.47C848.045 2995.67 697.283 3002.02 604.992 2882.37C564.978 2830.47 539.707 2772.5 522.405 2708.96C497.05 2625.06 466.121 2485.87 511.586 2406.64C454.807 2422.08 419.212 2470.14 417.106 2530.71C412.481 2665.11 453.362 2849.17 542.432 2953.22C588.887 3007.47 648.061 3044.68 719.127 3057.89C806.38 3074.07 894.335 3071.76 980.804 3052.77C1005.25 3047.4 1030.19 3031.92 1040.68 3010.41C1053.19 2984.81 1046.96 2954.5 1035.64 2928.94H1035.68ZM759.966 2445.29C711.157 2425.3 663.628 2451.36 647.937 2500.49C638.026 2531.54 639.224 2566.84 662.142 2591.45C682.541 2613.33 714.172 2630.71 748.817 2619.86C712.561 2569.36 712.355 2491.45 760.007 2445.25L759.966 2445.29ZM863.076 2608.75C807.041 2571.05 802.168 2491.7 834.253 2439.63C810.757 2435.25 793.042 2445.91 777.268 2461.97C746.876 2492.93 741.508 2542.81 761.99 2581.91C781.274 2618.74 826.696 2618.78 863.076 2608.71V2608.75ZM873.028 2557.1C882.236 2581.62 905.732 2583.89 924.603 2578.98C990.962 2561.68 1042.46 2511.14 1065.41 2447.64C1005.04 2512.83 964.575 2549.87 872.986 2557.1H873.028ZM2219.03 2574.31C2227.41 2583.19 2241.41 2578.73 2245.83 2571.05C2256.32 2552.89 2259.71 2534.64 2253.88 2512.67C2238.19 2523.65 2197.02 2551.11 2218.99 2574.36L2219.03 2574.31ZM2101.59 2557.51C2078.67 2522.29 2033.09 2515.02 1994.89 2529.97C1941.08 2550.99 1902.02 2595.33 1895.04 2652.89C1889.14 2701.48 1921.02 2740.05 1969.16 2743.89C1958.76 2645.41 2025.69 2602.47 2101.59 2557.51ZM2640.39 2531.75L2642.79 2523.74C2643.32 2522 2637.46 2521.38 2632.92 2521.38L2506.35 2521.75C2504.66 2521.75 2496.56 2528.61 2498.01 2528.69C2499.46 2528.77 2503.87 2529.06 2506.64 2529.1L2640.43 2531.75H2640.39ZM2620.2 2571.26C2628 2571.34 2635.6 2568.57 2637.75 2565.19C2639.48 2562.42 2638.41 2551.44 2633.58 2551.44L2486.37 2551.27C2469.77 2551.27 2457.58 2554.17 2453.25 2569.28L2620.16 2571.26H2620.2ZM2187.15 2558.95C2155.6 2575.84 2154.08 2612.88 2167.87 2636.83C2170.43 2641.24 2184.51 2642.61 2187.81 2639.22C2203.34 2623.2 2192.93 2583.6 2187.15 2559V2558.95ZM2097.92 2676.17C2103.24 2690.5 2120.17 2695.25 2131.24 2690.46C2138.84 2687.16 2147.1 2673.24 2144.58 2663.66C2137.06 2635.38 2134.71 2613.79 2134.17 2581.33C2102.25 2583.11 2084.5 2640.17 2097.92 2676.17ZM2609.96 2618.04C2618.42 2618.04 2627.18 2599.5 2620.45 2592.44L2433.47 2591.37C2425.42 2599.33 2418.89 2607.47 2413.11 2617.17L2609.96 2618.04ZM683.986 2643.22C672.837 2630.34 661.481 2624.36 650.827 2628.44C640.174 2632.53 624.317 2636.74 631.997 2654.99C649.01 2653.09 668.171 2648.39 684.027 2643.22H683.986ZM2586.79 2664.74C2593.77 2664.74 2601.2 2648.39 2599.92 2640.95L2399.53 2639.88C2393.04 2646.9 2386.68 2655.36 2381.19 2664.61L2586.79 2664.78V2664.74ZM655.989 2718.78C705.335 2692.56 752.905 2684.22 808.156 2685.42C787.757 2633.77 603.009 2669.11 627.084 2714.28C630.965 2721.51 645.955 2724.15 655.948 2718.82L655.989 2718.78ZM2543.43 2732.57C2556.89 2716.88 2565.19 2706.97 2573.91 2690.62L2360.42 2691.49L2329.82 2736.7L2543.39 2732.57H2543.43ZM681.054 2780.3C731.102 2747.81 782.719 2733.77 843.007 2735.59C798.08 2687.45 632.947 2728.69 653.511 2774.85C656.485 2781.5 672.548 2785.84 681.054 2780.3ZM2475.34 2799.34C2489.46 2788.81 2502.02 2776.75 2514.36 2762.3L2313.3 2761.85L2279.9 2804.79L2475.34 2799.38V2799.34ZM979.07 2941.7C1008.35 2932.91 1020.4 2908.46 1014.79 2881.09C1007.36 2844.92 979.606 2817.79 944.3 2803.01C860.598 2768.04 719.086 2799.38 679.072 2881.58C674.612 2890.71 668.171 2912.88 675.025 2918.79C744.935 2978.78 895.987 2966.64 979.111 2941.7H979.07ZM2415.59 2854.95L2449.28 2827L2261.85 2828.2L2239.47 2860.69L2415.59 2854.95ZM2329 2898.14C2347.91 2898.31 2367.36 2897.85 2377.97 2879.56L2237.74 2880.47C2225.8 2880.55 2214.28 2884.85 2215.23 2897.07L2329 2898.14ZM2300.26 2937.04L2323.67 2919.9L2212.92 2917.38C2198.76 2917.05 2186.95 2922.17 2180.71 2938.65L2300.3 2937.04H2300.26ZM2233.48 2975.23L2256.15 2958.13L2172 2957.76C2165.76 2957.76 2157.5 2968.09 2154.57 2975.48L2233.44 2975.23H2233.48Z" fill="black"/>
<path d="M2505.36 3075.6C2493.38 3081.46 2502.8 3063.46 2451.93 3079.44C2450.98 3078.24 2449.37 3073.08 2451.02 3071.93C2452.67 3070.77 2458.53 3068.99 2460.68 3068.91L2497.93 3067.63C2499.91 3067.55 2506.56 3069.32 2508.54 3069.94C2510.52 3070.56 2507.18 3074.73 2505.36 3075.6Z" fill="black"/>
<path d="M392.413 3092.03L354.753 3085.55L389.605 3079.89L401.786 3095.75C392.247 3097.19 376.804 3101.74 392.454 3092.03H392.413Z" fill="black"/>
<path d="M1729.29 2997.4L1747.34 2988.48L1716.28 2989.88C1705.46 2990.38 1692.17 2990.05 1680.65 2989.06L1648.77 2986.38L1635.55 2982.7C1633.2 2982.04 1631.42 2985.38 1627.46 2988.03C1612.35 2977.66 1599.17 2978.94 1583.44 2984.19C1575.64 2986.79 1559.37 2979.85 1550.16 2979.03L1515.35 2976.01L1481.98 2974.57C1460.59 2973.66 1439.53 2970.52 1416.99 2971.1C1398.36 2971.59 1380.57 2971.8 1362.73 2970.89L1188.01 2961.85L1075.37 2958.17C1071.73 2892.53 1043.12 2835.75 995.257 2794.09C916.51 2725.6 901.768 2810.44 832.767 2644.55C1017.35 2617.05 1096.84 2517.33 1166.05 2358.5C1170.26 2348.84 1177.69 2343.92 1189.21 2343.96L1590.75 2344.58C1685.64 2433.52 1777.52 2527.53 1865.43 2625.84C1861.92 2660.44 1860.23 2694.63 1878.77 2724.32C1898.47 2755.86 1934.93 2768.62 1969.12 2778.24C1986.96 2831.25 2010.46 2882.74 2035.36 2933.2C2051.96 2966.85 2064.8 2994.14 2097.22 3020.98L2053.9 3017.34L2020.9 3014.58C2010.25 3013.67 1999.89 3011.89 1990.84 3012.3L1953.39 3014.04C1944.1 3014.49 1931.63 3012.97 1919.53 3011.77L1937.12 3005.62C1903.8 2999.79 1871.71 3003.92 1834.84 3011.56C1826 3011.73 1829.01 3007.51 1836.78 3001.45C1846.48 3001.65 1845.16 3000.41 1838.59 2998.14C1820.92 3000.33 1803.66 3000.37 1787.31 2997.11C1758.81 2991.45 1789.41 3010.36 1729.29 2997.44V2997.4Z" fill="white"/>
<path d="M2296.54 1296.67L2318.14 2128.6C2319.21 2170.67 2298.23 2201.19 2259.42 2216.92C2202.18 2240.12 2140.28 2251.68 2077.56 2259.03L2053.03 1481.44L2041.92 1009.43L2021.73 396.414L2004.72 126.014C2002.74 94.3039 1991.3 67.1771 1969.82 43.3535C2047.54 49.423 2121.29 57.8046 2193.97 80.5134C2226.46 90.6704 2243.02 124.321 2244.84 157.971L2280.43 816.155L2291.67 1106.91C2257.56 1090.15 2233.44 1071.03 2200.99 1070.45C2159.32 1069.71 2132.97 1107.49 2128.64 1145.27C2123.19 1192.54 2142.22 1230.86 2183.11 1255.8C2216.51 1274.13 2252.02 1286.43 2296.54 1296.67Z" fill="white"/>
<path d="M26.6755 152.438C21.39 130.019 31.5069 114.329 47.4875 110.778C68.7123 106.03 79.1183 116.724 85.1884 136.749L155.718 370.732C158.691 380.642 171.12 386.959 179.544 386.339C186.523 385.803 196.103 372.301 193.295 362.681L122.559 119.573C118.058 104.131 131.107 85.3442 142.215 83.0733C157.948 79.8528 169.427 89.3905 174.135 105.493L244.664 348.23C247.018 356.322 260.727 362.763 267.334 362.433C275.428 362.02 285.462 347.776 282.324 337.123L211.258 93.4781C207.169 79.5225 219.516 62.0986 229.138 60.0342C242.682 57.1853 257.093 65.3192 261.553 79.8528L337.079 325.191C339.887 334.357 354.051 341.706 361.194 340.757C370.155 339.559 378.331 324.241 374.904 312.969L301.525 73.164C297.354 59.58 302.888 46.6979 316.432 42.5691C333.362 37.3667 353.679 46.6979 359.955 64.9889C386.838 143.107 411.614 220.235 434.449 300.087C443.534 336.958 452.783 371.228 457.037 408.181C463.809 466.811 430.402 517.06 369.412 532.336L490.443 958.849C468.599 942.54 444.525 938.742 417.436 944.192L321.387 631.388L298.593 570.363C283.397 529.653 182.93 617.928 115.291 440.51C79.4074 346.372 50.1303 251.986 26.6343 152.356L26.6755 152.438ZM332.413 514.995C277.575 538.076 225.628 530.024 184.004 488.034C196.97 541.09 308.917 550.999 332.413 514.995Z" fill="white"/>
<path d="M1035.68 2928.94C1047 2954.54 1053.19 2984.85 1040.72 3010.41C1030.23 3031.92 1005.29 3047.4 980.845 3052.77C894.376 3071.76 806.421 3074.07 719.168 3057.89C648.102 3044.72 588.928 3007.47 542.473 2953.22C453.403 2849.17 412.564 2665.11 417.147 2530.71C419.212 2470.14 454.807 2422.04 511.627 2406.64C466.163 2485.83 497.092 2625.06 522.446 2708.96C539.748 2772.5 564.978 2830.47 605.033 2882.37C697.324 3002.07 848.086 2995.71 981.134 2962.47C1002.11 2955.04 1017.14 2945.91 1035.72 2928.94H1035.68Z" fill="white"/>
<path d="M389.315 1196.59C409.673 1202.49 480.657 1139.16 540.491 1163.48C552.012 1168.14 563.368 1182.14 565.639 1191.47C569.025 1205.51 561.055 1220.95 551.186 1231.27C520.918 1262.94 479.17 1266.78 438 1282.55C473.43 1290.85 518.358 1330.24 495.605 1363.11C466.493 1405.1 391.174 1406.05 349.591 1385.11C305.324 1362.82 246.44 1287.43 275.221 1240.11C318.497 1299.56 384.814 1349.4 457.078 1334.29C356.859 1311.54 284.141 1248.04 267.706 1150.84C258.663 1097.33 281.333 1047.08 325.476 1017.64C354.257 998.445 440.85 950.261 469.301 978.379C485.736 994.647 493.54 1015.7 496.224 1038.33C451.834 1035.56 373.872 1064.8 347.361 1098.49C353.101 1102.25 361.566 1101.13 367.43 1097.74C407.072 1074.71 492.425 1035.36 523.891 1079.16C535.907 1095.89 541.317 1115.54 534.049 1136.02C518.771 1137.71 505.144 1138.08 488.833 1141.22C457.326 1147.33 371.146 1191.31 389.315 1196.59Z" fill="white"/>
<path d="M1968.01 2276.62C1976.8 2258.95 1984.15 2242.6 1984.98 2223.61C1987.25 2170.34 1988.9 2121.33 1987.25 2066.71L1961.48 1217.48L1953.47 993.655C1952.85 976.644 1941.79 958.436 1937.62 942.085C1967.06 942.085 2004.39 929.121 2011.74 966.157L2045.56 2215.22C2046.01 2232.07 2040.35 2250.24 2029.82 2259.03C2013.02 2273.03 1990.43 2276.5 1968.01 2276.62Z" fill="white"/>
<path d="M2116.05 2986.71C2094.99 2972.96 2084.5 2953.14 2078.3 2929.81C2112 2876.13 2145.82 2827.37 2184.1 2777.54L2315.04 2607.01C2358.64 2550.24 2398.49 2494.34 2451.8 2446.48C2489.96 2412.26 2529.1 2383.77 2576.39 2363C2598.85 2366.22 2619.12 2374.35 2631.92 2391.86C2576.72 2413.87 2535.67 2443.92 2496.19 2482.69C2448.21 2531.58 2408.82 2584.39 2368.68 2640.38L2207.1 2865.81L2116.05 2986.71Z" fill="white"/>
<path d="M2010.54 888.205C2010.95 902.036 2000.67 910.872 1991.09 910.5L1952.36 908.973L1950 593.114C1948.81 435.267 1940.96 281.218 1921.84 125.807C1916.89 85.4683 1893.1 55.1624 1862.96 34.1051C1888.81 31.8755 1917.96 31.8755 1940.34 43.6841C1968.13 58.3416 1977.75 88.5237 1983.08 118.582L1997.9 465.49L2010.54 888.205Z" fill="white"/>
<path d="M2756.34 900.673C2768.28 923.629 2771.08 951.54 2760.76 976.148C2732.06 1044.48 2596.08 1035.89 2535.75 1014.75C2504.95 1003.94 2483.39 977.841 2487.69 946.297C2493.34 904.636 2527.45 915.454 2534.8 904.801C2536.91 901.746 2531.13 892.91 2527.49 891.465C2478.81 872.183 2402.09 823.545 2378.71 775.568C2364.63 746.624 2367.48 707.937 2396.72 690.761C2430.29 670.983 2477.49 683.287 2498.92 715.616L2508.79 769.828C2476.58 785.56 2434.83 768.59 2421.95 775.237C2403.41 784.816 2472.2 809.053 2517.83 786.633C2526.79 795.18 2531.17 808.268 2531.91 820.572C2534.64 865.329 2557.02 908.517 2598.93 926.602C2651.5 949.228 2711.04 935.933 2756.34 900.714V900.673Z" fill="white"/>
<path d="M979.069 2941.7C895.945 2966.64 744.893 2978.78 674.984 2918.79C668.129 2912.88 674.571 2890.71 679.03 2881.59C719.085 2799.38 860.557 2768.04 944.259 2803.01C979.606 2817.79 1007.31 2844.88 1014.75 2881.09C1020.36 2908.46 1008.35 2932.91 979.028 2941.7H979.069Z" fill="white"/>
<path d="M2552.39 814.462C2606.24 815.494 2633.58 846.213 2671.15 831.142C2711.66 814.875 2740.4 753.561 2710.71 723.833C2706.13 758.97 2701.01 790.019 2670 806.287C2656.66 813.306 2639.98 814.503 2624.86 807.773C2585.72 790.349 2588.15 689.605 2659.55 652.238C2690.77 635.888 2725.25 649.513 2746.64 675.938C2773.81 709.506 2781.41 752.405 2778.97 795.428C2774.72 870.904 2713.56 920.739 2639.27 914.174C2587.37 909.591 2546.94 871.564 2552.35 814.503L2552.39 814.462Z" fill="white"/>
<path d="M576.622 1504.36L509.396 1288.08L547.139 1262.77L567.579 1284.7L569.933 1247C589.01 1230.12 586.822 1209.18 587.978 1182.26L679.732 1424.67C688.569 1448.08 694.557 1472.98 698.81 1496.96C703.063 1520.95 689.312 1536.27 670.359 1544.9C652.561 1552.99 629.808 1557.12 610.937 1546.84C598.301 1539.95 583.064 1525 576.664 1504.4L576.622 1504.36Z" fill="white"/>
<path d="M2101.59 2557.51C2025.69 2602.47 1958.76 2645.41 1969.16 2743.89C1921.02 2740.05 1889.14 2701.48 1895.04 2652.89C1902.02 2595.33 1941.08 2550.99 1994.89 2529.97C2033.13 2515.02 2078.67 2522.29 2101.59 2557.51Z" fill="white"/>
<path d="M2358.4 2515.85C2350.88 2524.31 2339.15 2532.4 2331.64 2532.45C2321.81 2532.45 2307.23 2523.9 2302.86 2515.35C2288.57 2487.36 2293.32 2458.04 2310.5 2432.9C2357.41 2364.19 2469.85 2338.1 2552.48 2356.76C2530.14 2367.87 2510.56 2378.85 2489.46 2392.52C2440.69 2428.44 2399.9 2469.15 2358.4 2515.89V2515.85Z" fill="white"/>
<path d="M759.966 2445.29C712.313 2491.49 712.519 2569.4 748.775 2619.9C714.171 2630.76 682.499 2613.37 662.1 2591.49C639.182 2566.88 637.985 2531.54 647.895 2500.53C663.587 2451.4 711.157 2425.34 759.924 2445.33L759.966 2445.29Z" fill="white"/>
<path d="M2587.99 793.116C2564.04 798.649 2543.52 786.345 2532.32 764.751C2508.66 719.168 2516.39 657.73 2554.25 621.066C2583.36 592.866 2631.06 602.858 2652.94 633.288C2596.58 666.401 2567.42 733.95 2587.99 793.116Z" fill="white"/>
<path d="M863.075 2608.75C826.696 2618.78 781.314 2618.74 761.989 2581.95C741.507 2542.85 746.875 2492.98 777.267 2462.01C793.041 2445.95 810.756 2435.29 834.252 2439.67C802.167 2491.74 807.04 2571.09 863.075 2608.79V2608.75Z" fill="white"/>
<path d="M2543.43 2732.57L2329.86 2736.7L2360.46 2691.49L2573.95 2690.62C2565.24 2706.97 2556.94 2716.92 2543.47 2732.57H2543.43Z" fill="white"/>
<path d="M2500.16 684.94C2475.79 671.645 2453.7 664.708 2426.41 664.213C2416.66 640.307 2420.42 611.9 2436.98 589.398C2460.43 557.44 2518.28 580.479 2541.45 604.385C2519.11 629.241 2508.04 655.418 2500.2 684.94H2500.16Z" fill="white"/>
<path d="M2475.34 2799.34L2279.9 2804.75L2313.3 2761.81L2514.36 2762.26C2502.02 2776.71 2489.46 2788.81 2475.34 2799.3V2799.34Z" fill="white"/>
<path d="M567.455 1104.23C557.545 1078.55 539.871 1060.21 519.761 1043.7C515.962 1022.97 512.329 997.042 501.964 974.54C526.823 960.956 557.38 974.705 572.865 999.189C593.759 1032.26 596.32 1073.34 567.455 1104.23Z" fill="white"/>
<path d="M655.988 2718.78C645.995 2724.11 630.964 2721.51 627.124 2714.24C603.05 2669.07 787.797 2633.77 808.196 2685.38C752.945 2684.22 705.375 2692.52 656.029 2718.74L655.988 2718.78Z" fill="white"/>
<path d="M2415.59 2854.95L2239.51 2860.69L2261.85 2828.24L2449.32 2827.04L2415.59 2854.95Z" fill="white"/>
<path d="M681.054 2780.3C672.548 2785.84 656.443 2781.5 653.511 2774.85C632.947 2728.69 798.121 2687.44 843.007 2735.59C782.719 2733.77 731.102 2747.81 681.054 2780.3Z" fill="white"/>
<path d="M2586.79 2664.74L2381.19 2664.57C2386.68 2655.32 2393 2646.86 2399.52 2639.84L2599.92 2640.91C2601.2 2648.34 2593.77 2664.69 2586.79 2664.69V2664.74Z" fill="white"/>
<path d="M873.027 2557.1C964.616 2549.87 1005.08 2512.88 1065.46 2447.64C1042.5 2511.14 990.962 2561.68 924.644 2578.98C905.773 2583.89 882.277 2581.62 873.069 2557.1H873.027Z" fill="white"/>
<path d="M2609.96 2618.04L2413.11 2617.17C2418.85 2607.47 2425.37 2599.33 2433.47 2591.37L2620.45 2592.44C2627.18 2599.5 2618.42 2618.08 2609.96 2618.04Z" fill="white"/>
<path d="M2097.92 2676.17C2084.5 2640.17 2102.25 2583.11 2134.17 2581.33C2134.71 2613.74 2137.02 2635.34 2144.58 2663.66C2147.14 2673.24 2138.84 2687.16 2131.24 2690.46C2120.13 2695.29 2103.24 2690.54 2097.92 2676.17Z" fill="white"/>
<path d="M2539.92 1103.11C2528.4 1152.37 2368.93 1229.29 2377.85 1165.7C2426.74 1163.76 2469.48 1148.16 2509.04 1119.79C2517.95 1113.39 2528.65 1107.69 2539.92 1103.11Z" fill="white"/>
<path d="M2620.2 2571.26L2453.29 2569.28C2457.62 2554.12 2469.81 2551.23 2486.41 2551.27L2633.62 2551.44C2638.45 2551.44 2639.52 2562.42 2637.79 2565.19C2635.64 2568.62 2628.04 2571.38 2620.24 2571.26H2620.2Z" fill="white"/>
<path d="M2300.25 2937.04L2180.67 2938.65C2186.95 2922.13 2198.71 2917.05 2212.88 2917.38L2323.63 2919.9L2300.21 2937.04H2300.25Z" fill="white"/>
<path d="M2329 2898.14L2215.23 2897.07C2214.28 2884.85 2225.8 2880.55 2237.74 2880.47L2377.97 2879.56C2367.4 2897.85 2347.95 2898.31 2329 2898.14Z" fill="white"/>
<path d="M178.099 1442.09C149.483 1389.08 236.984 1298.53 241.732 1323.64C242.476 1327.48 240.37 1335.24 238.057 1338.75C206.22 1365.21 193.254 1400.27 178.099 1442.09Z" fill="white"/>
<path d="M2187.15 2558.95C2192.93 2583.56 2203.38 2623.16 2187.81 2639.18C2184.51 2642.6 2170.39 2641.2 2167.87 2636.78C2154.08 2612.88 2155.6 2575.8 2187.15 2558.91V2558.95Z" fill="white"/>
<path d="M621.426 1186.72C605.899 1165.62 588.928 1137.92 592.644 1108.85L615.521 1071.2L621.426 1186.72Z" fill="white"/>
<path d="M2219.03 2574.31C2197.06 2551.07 2238.23 2523.65 2253.92 2512.63C2259.75 2534.64 2256.36 2552.84 2245.87 2571.01C2241.45 2578.69 2227.41 2583.15 2219.07 2574.27L2219.03 2574.31Z" fill="white"/>
<path d="M439.281 1456.67C454.889 1475.99 375.854 1526.82 341.869 1521.45C373.913 1506.87 405.379 1494.03 423.052 1461.62C424.25 1459.43 427.429 1455.39 429.205 1454.23C431.6 1452.7 437.505 1454.44 439.281 1456.67Z" fill="white"/>
<path d="M2233.48 2975.23L2154.61 2975.47C2157.5 2968.08 2165.8 2957.72 2172.04 2957.76L2256.2 2958.13L2233.53 2975.23H2233.48Z" fill="white"/>
<path d="M2640.39 2531.74L2506.6 2529.1C2503.83 2529.06 2499.41 2528.77 2497.97 2528.69C2496.52 2528.61 2504.62 2521.75 2506.31 2521.75L2632.87 2521.38C2637.42 2521.38 2643.28 2522 2642.74 2523.73L2640.35 2531.74H2640.39Z" fill="white"/>
<path d="M683.986 2643.22C668.129 2648.39 649.01 2653.09 631.956 2654.99C624.316 2636.7 640.091 2632.49 650.786 2628.44C661.481 2624.4 672.795 2630.38 683.944 2643.22H683.986Z" fill="white"/>
<path d="M2329.82 1165.25C2333.17 1163.39 2343.74 1164.67 2346.75 1167.03C2350.38 1169.88 2348.44 1180.32 2344.44 1183.91C2341.01 1186.97 2332.01 1185.57 2328.21 1182.68C2324.41 1179.79 2325.77 1167.44 2329.82 1165.21V1165.25Z" fill="white"/>
<path d="M1234.26 776.931C1178.52 729.779 1149.82 661.281 1148.08 590.388C1147.75 576.846 1163.9 565.491 1175.21 570.487C1224.52 592.205 1275.68 598.564 1329.77 594.724C1411.12 588.943 1440.11 546.292 1457.08 566.895C1460.67 571.23 1466.99 582.874 1467.12 589.15C1468.4 656.038 1445.6 719.044 1401.05 767.682C1357.03 815.742 1285.84 820.532 1234.26 776.89V776.931ZM1417.81 705.625C1372.43 655.501 1250.82 660.043 1218.32 718.425C1241.98 775.899 1311.19 803.026 1364.92 768.921C1388.82 753.727 1405.38 731.679 1417.85 705.584L1417.81 705.625Z" fill="black"/>
<path d="M1612.72 498.025C1595.58 530.065 1566.8 546.333 1537.65 548.934C1502.88 552.072 1474.22 539.148 1452.46 511.402C1413.11 461.237 1406.66 388.238 1441.6 334.852C1460.18 306.404 1488.01 290.755 1518.36 289.393C1548.71 288.03 1579.02 301.862 1599.34 328.287C1636.05 376.058 1642.12 443.111 1612.72 498.025ZM1504.9 420.361C1524.64 409.667 1530.01 387.866 1523.69 372.094C1516.5 354.092 1499.66 341.004 1478.76 346.123C1455.1 351.945 1445.07 377.916 1452.91 398.395C1460.18 417.305 1484.25 431.55 1504.9 420.361Z" fill="black"/>
<path d="M1144.57 517.802C1125.83 542.122 1097.95 553.393 1071.61 553.228C1043.36 553.063 1016.81 539.314 998.89 514.747C964.121 467.141 959.909 403.061 987.741 351.491C1004.46 320.525 1032.46 302.812 1063.85 300.541C1097.99 298.022 1127.31 313.671 1148.08 342.366C1185.21 393.647 1184.83 465.613 1144.57 517.802ZM1050.88 428.743C1076.07 426.307 1087.67 401.822 1083.75 382.747C1079.83 363.671 1063.47 347.28 1041.3 351.161C1019.12 355.042 1009.38 374.118 1011.28 393.193C1013.05 410.906 1027.09 431.055 1050.88 428.743ZM1105.84 512.435C1094.2 501.287 1079.78 492.203 1063.56 497.943C1071.98 515.16 1089.9 522.509 1105.84 512.435Z" fill="black"/>
<path d="M332.413 514.995C308.958 550.999 197.011 541.089 184.004 488.033C225.628 530.024 277.534 538.075 332.413 514.995Z" fill="black"/>
<path d="M852.546 1250.76C850.399 1209.55 844.287 1131.11 858.121 1094.48C872.036 1112.86 860.103 1222.4 852.546 1250.76Z" fill="white"/>
<path d="M887.975 1550.02C889.751 1557.25 885.457 1569.63 881.616 1571.99L867.824 1468.11L887.975 1550.02Z" fill="white"/>
<path d="M814.886 398.933C813.399 378.577 811.624 355.91 814.473 333.82L819.882 291.623C821.74 309.625 822.979 330.187 820.749 349.056L814.886 398.933Z" fill="white"/>
<path d="M1504.9 420.361C1484.25 431.55 1460.14 417.305 1452.91 398.395C1445.07 377.916 1455.1 351.945 1478.76 346.123C1499.66 340.962 1516.5 354.092 1523.69 372.094C1530.01 387.866 1524.64 409.667 1504.9 420.361Z" fill="white"/>
<path d="M1050.88 428.743C1027.09 431.055 1013.09 410.906 1011.28 393.193C1009.34 374.118 1019.95 354.877 1041.3 351.161C1062.65 347.445 1079.7 363.135 1083.75 382.747C1087.79 402.359 1076.07 426.307 1050.88 428.743Z" fill="white"/>
<path d="M1105.84 512.434C1089.9 522.509 1071.98 515.201 1063.56 497.942C1079.78 492.161 1094.2 501.286 1105.84 512.434Z" fill="white"/>
<path d="M860.639 1574.8C844.948 1581.61 818.396 1583.76 803.86 1564.47C797.295 1555.8 795.437 1545.73 794.817 1539.62C786.682 1476.61 780.86 1402.83 781.232 1320.42C781.562 1243.99 787.137 1175.2 794.817 1115.79C794.817 1113.43 795.065 1101.01 803.86 1090.93C805.347 1089.24 809.27 1085.07 818.602 1081.52C826.531 1078.5 842.47 1072.48 860.639 1080.57C881.864 1090.07 890.04 1111.74 891.485 1115.75C882.855 1189.86 880.377 1251.63 879.923 1296.92C879.51 1335.86 879.345 1355.3 880.873 1375.54C883.061 1404.73 893.22 1510.92 891.485 1539.58C891.485 1551.38 877.074 1567.61 860.639 1574.75V1574.8Z" stroke="black" stroke-width="7.48" stroke-miterlimit="10"/>
<path d="M868.898 1080.57C855.891 1146.34 845.237 1227.35 844.7 1320.25C844.122 1419.63 855.271 1505.88 868.898 1574.8" stroke="black" stroke-width="5" stroke-miterlimit="10"/>
<path d="M805.389 796.088C789.698 802.901 763.146 805.048 748.61 785.766C742.045 777.096 740.187 767.021 739.567 760.91C731.432 697.904 725.61 624.121 725.982 541.708C726.312 465.283 731.887 396.496 739.567 337.081C739.567 334.728 739.815 322.3 748.61 312.225C750.097 310.533 754.02 306.362 763.352 302.812C771.281 299.797 787.22 293.769 805.389 301.862C826.614 311.358 834.79 333.035 836.235 337.04C827.605 411.153 825.127 472.921 824.673 518.215C824.26 557.15 824.095 576.597 825.623 596.829C827.811 626.02 837.97 732.215 836.235 760.869C836.235 772.678 821.824 788.904 805.389 796.047V796.088Z" stroke="black" stroke-width="7.48" stroke-miterlimit="10"/>
<path d="M813.648 301.861C800.641 367.634 789.987 448.643 789.45 541.543C788.872 640.925 800.021 727.177 813.648 796.088" stroke="black" stroke-width="5" stroke-miterlimit="10"/>
</g>
<defs>
<clipPath id="clip0_39_2497">
<rect width="2808" height="3123" fill="white"/>
</clipPath>
</defs>
</svg>
