<svg width="4825" height="1514" viewBox="0 0 4825 1514" fill="none" xmlns="http://www.w3.org/2000/svg">
<path d="M4663.69 578.042V872.261C4663.69 1002.46 4665.67 1078.2 4669.64 1099.65C4673.6 1121.1 4688.81 1137.6 4715.09 1149.15C4737.73 1158.89 4752.94 1168.13 4760.54 1176.71C4768.14 1185.29 4771.95 1197.5 4771.95 1213.34C4771.95 1233.48 4764.67 1251.79 4750.29 1268.29C4735.91 1284.8 4716.74 1296.35 4692.94 1303.11C4648.81 1316.48 4574.44 1323.24 4469.81 1323.24C4351.64 1323.24 4268.67 1314.33 4221.07 1296.68C4199.09 1288.76 4180.91 1276.38 4166.86 1259.55C4152.81 1242.72 4145.7 1225.23 4145.7 1206.91C4145.7 1192.22 4149.5 1181 4157.11 1172.92C4164.71 1165 4181.4 1155.42 4207.19 1144.53C4230.99 1134.14 4245.7 1105.76 4251.32 1059.22C4261.07 979.85 4266.03 866.651 4266.03 720.119C4266.03 573.587 4261.73 475.074 4253.13 432.335C4244.54 389.597 4223.22 357.749 4188.84 336.957C4163.06 322.271 4145.54 308.41 4136.12 295.209C4126.69 282.008 4121.9 266.001 4121.9 247.025C4121.9 217.157 4136.28 190.92 4165.04 168.643C4193.8 146.366 4239.75 125.74 4302.72 106.763C4345.03 93.8921 4399.74 81.6811 4467 70.1301C4534.27 58.5792 4583.36 52.6387 4613.94 52.6387C4662.2 52.6387 4686.5 82.5061 4686.5 142.406C4686.5 162.043 4683.36 206.926 4677.24 277.222C4669.31 386.626 4664.68 486.79 4663.52 577.877L4663.69 578.042Z" fill="white"/>
<path d="M4716.41 578.373C4713.44 732.001 4704.68 929.687 4707.82 1080.84C4708.15 1086.94 4708.31 1091.57 4709.47 1096.02C4711.95 1103.78 4720.87 1109.72 4729.47 1114.01C4751.95 1125.23 4769.8 1132.32 4789.8 1155.1C4817.07 1192.88 4810.29 1240.24 4786.82 1275.72C4747.32 1334.47 4672.61 1341.73 4609.81 1346.51C4532.29 1351.3 4457.09 1349.15 4380.73 1344.53C4304.37 1336.45 4211.98 1336.28 4155.12 1275.56C4128.35 1247.34 4113.47 1193.54 4143.72 1160.38C4161.9 1142.22 4186.2 1136.12 4207.19 1124.07C4217.27 1116.65 4224.54 1101.96 4229 1085.79C4253.96 940.083 4248.51 789.095 4248.18 641.408C4246.69 585.634 4245.03 529.694 4239.42 474.414C4235.94 439.926 4230.16 406.429 4207.85 380.522C4182.56 350.654 4145.37 344.384 4119.09 310.721C4071.49 248.511 4108.51 166.334 4170 132.341C4289.83 62.8704 4426.02 40.7585 4559.23 17.9867C4607.66 10.396 4667.32 5.94067 4701.54 49.9993C4728.48 86.6323 4730.13 118.645 4729.14 156.598C4728.15 173.925 4726.33 224.914 4725.34 243.065C4719.72 350.984 4716.91 471.114 4716.58 577.878L4716.41 578.373ZM4610.96 577.713C4613.28 467.154 4624.52 348.344 4634.76 238.28C4636.09 222.439 4641.04 172.274 4642.53 156.268C4644.52 137.457 4646.17 104.784 4630.8 95.8731C4622.04 90.9227 4605.01 92.2428 4593.94 92.2428C4494.44 98.6783 4391.64 114.19 4296.6 140.097C4232.31 157.753 4110.66 200.492 4155.95 282.668C4176.61 309.566 4220.08 323.757 4240.74 354.284C4267.18 387.287 4275.45 431.181 4278.09 470.949C4282.55 527.714 4282.88 584.478 4283.21 641.243C4284.04 754.112 4282.55 867.147 4275.78 980.016C4268.01 1045.69 4278.42 1139.25 4200.41 1167.14C4188.51 1173.74 4171.49 1180.01 4166.86 1191.89C4164.87 1196.68 4164.38 1204.27 4165.04 1211.04C4184.54 1299.81 4310.82 1291.73 4383.04 1297.67C4456.76 1299.32 4532.12 1297.01 4604.35 1288.92C4648.65 1281.83 4705.17 1278.86 4730.46 1238.76C4737.4 1228.69 4739.88 1209.55 4733.77 1200.31C4726.66 1195.03 4710.63 1186.94 4698.89 1182.65C4660.38 1168.79 4628.65 1129.85 4627.99 1087.27C4616.09 931.997 4616.42 733.981 4611.13 577.218L4610.96 577.713Z" fill="black"/>
<path d="M4147.69 556.096C4163.22 593.059 4171.15 643.883 4171.15 708.733L4169.34 845.365C4169.34 940.082 4176.11 1001.47 4189.5 1029.68C4196.28 1043.05 4202.72 1051.63 4208.84 1055.43C4214.95 1059.06 4227.85 1062.52 4247.35 1065.49C4267.02 1068.63 4276.77 1081.33 4276.77 1103.94C4276.77 1133.31 4265.03 1163.84 4241.4 1195.69C4217.76 1227.54 4187.35 1254.1 4150 1275.39C4104.05 1302.29 4055.96 1315.65 4005.88 1315.65C3941.58 1315.65 3890.84 1293.71 3853.49 1249.65C3840.6 1233.81 3828.7 1225.89 3817.62 1225.89C3805.39 1225.89 3789.19 1233.48 3769.03 1248.82C3707.88 1293.38 3638.29 1315.82 3560.61 1315.82C3482.93 1315.82 3415.5 1298.66 3365.91 1264.5C3333.52 1241.89 3307.74 1212.35 3288.73 1176.05C3269.72 1139.75 3260.3 1101.63 3260.3 1061.86C3260.3 998.332 3286.08 942.063 3337.49 893.219C3417.65 816.157 3537.64 777.379 3697.46 776.884C3733 776.884 3755.31 773.419 3764.57 766.323C3773.82 759.392 3778.29 742.891 3778.29 717.314C3778.29 652.629 3771.51 605.6 3758.12 576.557M3733.16 907.575C3706.22 907.575 3682.75 918.631 3662.92 940.577C3643.09 962.524 3633.01 988.926 3633.01 1019.45C3633.01 1049.98 3639.95 1072.42 3654.16 1090.57C3668.21 1108.56 3686.89 1117.64 3710.19 1117.64C3759.11 1117.64 3783.57 1076.38 3783.57 993.877C3783.57 960.214 3780.1 937.607 3773 926.056C3765.89 914.505 3752.67 908.4 3733 907.74L3733.16 907.575Z" fill="white"/>
<path d="M4163.06 549.66C4228.67 578.373 4214.13 668.14 4216.94 725.73C4218.09 819.787 4205.86 918.301 4229.5 1007.74C4229.99 1009.55 4233.63 1015.99 4235.12 1017.97C4235.94 1019.12 4236.61 1019.78 4235.61 1018.79C4235.12 1018.3 4233.96 1017.31 4231.98 1016.15C4230.32 1015.16 4230.16 1015.16 4230.33 1015.33C4232.97 1016.65 4247.18 1019.45 4252.47 1020.28C4275.94 1023.41 4299.41 1036.45 4311.31 1059.22C4336.27 1109.88 4312.47 1168.13 4288.17 1206.58C4196.44 1345.19 3984.06 1415.82 3847.54 1303.11C3835.47 1293.87 3820.93 1274.89 3812 1266.48C3812.66 1266.81 3815.31 1267.47 3817.95 1267.47C3805.06 1271.59 3771.34 1298.82 3753 1307.24C3669.04 1353.94 3569.54 1363.18 3475.99 1346.35C3307.74 1323.41 3185.76 1150.14 3239.97 985.296C3270.55 893.714 3354.01 828.863 3439.46 794.54C3496.32 771.603 3555.99 760.878 3614.99 756.257C3659.12 750.482 3710.03 759.227 3751.35 749.162C3758.78 738.766 3757.63 719.789 3758.29 703.453C3758.29 663.85 3757.3 618.801 3743.25 583.323L3773.33 569.462C3793.16 613.52 3795.64 657.084 3798.28 702.793C3798.62 727.875 3802.58 757.577 3780.77 780.679C3754.98 800.151 3730.85 797.181 3703.91 799.491C3621.27 801.306 3535.99 812.527 3461.45 846.025C3305.59 913.35 3231.87 1074.24 3356.49 1209.71C3427.73 1280.84 3548.88 1289.58 3643.58 1265.82C3680.11 1255.92 3714.82 1238.26 3745.06 1215.66C3758.12 1206.08 3771.84 1195.36 3795.31 1187.77C3834.15 1174.07 3869.69 1200.47 3890.84 1227.87C3995.13 1336.78 4218.09 1230.18 4232.64 1102.79C4233.96 1106.09 4239.42 1109.88 4241.07 1110.05H4240.9L4238.59 1109.72L4226.52 1107.57C4164.21 1101.14 4140.25 1044.04 4132.81 990.412C4119.75 901.139 4125.37 812.692 4125.54 725.235C4126.03 697.182 4125.37 671.77 4122.4 644.708C4117.44 614.18 4116.45 593.884 4133.14 562.531L4163.55 549.66H4163.06Z" fill="black"/>
<path d="M3733 924.076C3729.2 922.425 3728.21 949.653 3726.39 954.108C3722.92 954.768 3719.45 955.428 3716.14 956.913C3688.04 969.784 3673 1000.81 3674.16 1031.5C3673 1061.04 3690.19 1092.55 3722.92 1086.78C3767.54 1077.54 3769.53 976.55 3760.6 939.752C3756.8 927.046 3747.38 925.396 3732.83 924.076H3733ZM3733.5 891.073C3807.38 889.258 3803.08 973.25 3803.08 1026.22C3803.9 1091.89 3767.87 1157.24 3689.86 1147.5C3617.63 1138.59 3583.92 1057.57 3592.51 992.226C3599.78 929.686 3648.87 872.261 3712.84 862.855C3721.43 863.846 3728.54 892.558 3733.5 890.908V891.073Z" fill="black"/>
<path d="M1404.87 398.343C1439.75 398.343 1457.27 423.095 1457.27 472.599V488.11C1456.61 497.846 1456.28 505.767 1456.28 511.872C1456.28 544.875 1466.03 561.376 1485.7 561.376C1496.11 561.376 1512.31 548.175 1534.29 521.938C1567.34 483.985 1608.99 453.952 1659.07 431.676C1709.32 409.399 1760.72 398.178 1813.28 398.178C1915.42 398.178 1986.49 435.471 2026.32 510.057C2041.53 537.614 2054.26 551.31 2064.01 551.31C2070.79 551.31 2086.65 539.099 2111.77 514.677C2191.27 437.121 2281.68 398.343 2382.67 398.343C2461.67 398.343 2526.13 419.96 2576.37 463.358C2628.93 508.572 2655.38 576.392 2655.38 666.82C2655.38 686.457 2654.72 719.459 2653.56 765.828C2652.4 781.669 2651.74 829.688 2651.74 909.72C2651.74 961.039 2651.41 997.177 2650.75 1017.97C2650.09 1030.84 2649.76 1039.92 2649.76 1045.53C2649.76 1084.63 2661.99 1118.79 2686.45 1148.16C2701.16 1165.82 2710.25 1177.7 2713.56 1183.48C2716.86 1189.25 2718.68 1197.01 2718.68 1206.91C2718.68 1285.13 2626.62 1324.23 2442.33 1324.23C2360.85 1324.23 2295.23 1314.5 2245.32 1294.86C2195.41 1275.23 2170.45 1249.65 2170.45 1217.8C2170.45 1205.59 2172.1 1196.18 2175.57 1189.91C2178.88 1183.48 2190.78 1166.48 2210.94 1139.09C2229.95 1114.01 2239.37 1030.67 2239.37 888.763C2239.37 806.256 2233.59 748.832 2221.85 716.489C2208.46 678.041 2181.52 658.734 2141.03 658.734C2120.86 658.734 2102.85 665.005 2087.31 677.546C2071.78 690.087 2061.53 705.763 2056.57 724.74C2051.12 746.686 2047.98 805.431 2047.32 900.809C2049.13 1003.45 2052.44 1065.82 2056.9 1087.77C2061.36 1109.72 2076.9 1140.41 2103.35 1179.52C2109.46 1188.76 2112.6 1200.31 2112.6 1214.34C2112.6 1287.11 2017.4 1323.41 1827 1323.41C1712.46 1323.41 1635.44 1314.83 1595.61 1297.67C1563.71 1284.3 1547.84 1260.37 1547.84 1226.22C1547.84 1211.03 1549.82 1200.31 1553.79 1194.2C1557.76 1188.1 1571.31 1174.07 1594.62 1151.96C1608 1139.09 1616.76 1127.04 1620.73 1115.82C1624.7 1104.44 1627.67 1083.81 1629.49 1053.94C1633.79 986.781 1635.94 918.961 1635.94 850.48C1635.94 730.68 1605.36 670.78 1544.04 670.78C1498.09 670.78 1470.82 696.522 1462.39 747.842C1455.12 796.191 1451.32 865.166 1451.32 954.934C1451.32 1022.09 1452.64 1066.15 1455.45 1086.94C1458.26 1107.74 1465.7 1129.35 1477.93 1151.96C1492.64 1178.2 1499.91 1199.65 1499.91 1216.15C1499.91 1255.92 1471.98 1283.31 1416.28 1298.66C1355.62 1315.16 1289.01 1323.41 1216.13 1323.41C1121.92 1323.41 1052.66 1315.98 1008.7 1300.97C964.736 1285.95 942.588 1262.35 942.588 1229.85C942.588 1217.64 945.398 1207.24 951.348 1198.66C957.133 1190.08 970.52 1176.71 991.346 1158.4C1018.95 1133.31 1034.81 1098.83 1039.11 1054.77C1045.89 979.026 1049.19 900.479 1049.19 819.127C1049.19 761.043 1046.22 720.614 1040.43 697.677C1034.65 674.741 1022.25 656.259 1003.25 642.233C984.9 628.207 973.165 617.481 967.876 610.22C962.752 602.96 960.108 592.729 960.108 580.023C960.108 539.099 992.172 506.757 1056.47 482.83C1211.33 427.22 1327.36 399.168 1404.38 398.508L1404.87 398.343Z" fill="white"/>
<path d="M1404.71 380.191C1468.51 378.705 1479.42 445.866 1476.28 493.225C1475.45 507.416 1474.46 530.518 1481.4 540.254C1482.39 541.409 1484.04 541.739 1485.37 541.574C1483.88 541.574 1484.37 541.739 1485.2 541.244C1498.59 534.478 1510.98 516.657 1522.88 503.951C1544.7 479.364 1569.99 458.077 1597.59 440.421C1730.64 353.623 1954.43 336.132 2044.84 491.245C2050.95 502.136 2058.89 515.667 2067.15 524.413C2068.97 526.723 2071.78 527.548 2067.81 525.898C2066.49 525.568 2065.83 525.238 2062.19 525.568C2058.72 526.063 2058.72 526.393 2058.22 526.393L2060.7 524.743C2111.77 480.024 2160.2 430.19 2224.99 403.458C2440.18 310.06 2694.71 407.583 2688.27 667.809C2686.95 762.362 2686.78 852.46 2686.45 945.527V1007.9C2684.96 1052.29 2684.3 1089.09 2712.9 1122.59C2724.46 1136.78 2729.42 1144.37 2739.01 1156.25C2749.92 1167.97 2755.7 1187.93 2755.87 1202.29C2759.17 1246.02 2731.74 1291.73 2697.19 1312.35C2588.61 1391.39 2076.74 1401.62 2136.4 1182.82C2138.55 1172.75 2156.07 1150.64 2161.36 1141.89L2179.54 1115.49C2188.13 1096.84 2191.44 1068.13 2193.92 1044.37C2200.36 966.649 2201.36 882.822 2197.06 805.101C2194.58 774.738 2191.44 732.33 2174.58 710.878C2151.11 685.301 2102.19 700.482 2094.92 733.98C2081.86 830.348 2086.49 932.161 2090.12 1029.19C2091.28 1045.69 2091.94 1068.79 2095.41 1082.82C2101.86 1106.91 2121.69 1138.1 2136.9 1161.04C2159.71 1199.15 2153.26 1250.8 2125.49 1284.14C2058.55 1355.26 1953.11 1354.27 1864.85 1359.22C1777.58 1359.05 1696.1 1360.37 1608.99 1338.59C1540.57 1323.24 1500.9 1263.84 1518.09 1194.53C1529.99 1148.33 1592.3 1131.66 1594.28 1086.61C1600.4 1031.66 1601.72 931.996 1604.53 875.397C1606.35 836.288 1605.85 797.345 1597.59 760.217C1589.99 730.68 1579.24 701.637 1547.18 699.987C1513.3 698.172 1498.26 715.663 1491.65 748.336C1476.11 856.255 1476.11 969.619 1480.74 1078.69C1483.05 1119.78 1511.15 1150.8 1521.4 1190.08C1533.3 1228.69 1515.12 1275.22 1480.57 1296.02C1376.45 1359.55 1082.75 1361.03 974.983 1308.06C924.903 1285.29 904.078 1215.32 946.059 1175.23C959.282 1160.21 977.793 1146.84 989.858 1132.98C1015.31 1103.94 1020.93 1067.8 1023.58 1028.86C1030.85 928.036 1037.79 825.232 1029.19 724.574C1026.88 704.772 1022.75 688.106 1012.83 674.245C997.957 653.618 973.661 643.057 957.463 622.431C944.572 606.589 942.754 584.312 945.729 565.501C965.397 474.248 1086.05 459.727 1158.94 430.685C1239.43 406.098 1319.59 382.666 1405.21 380.026L1404.71 380.191ZM1404.87 416.659C1285.05 420.949 1165.38 462.367 1052.83 501.641C1020.77 514.842 983.578 535.468 977.462 570.616C974.983 586.953 977.793 600.979 991.511 611.045C1061.59 658.734 1063.41 706.423 1065.72 783.484C1067.54 866.486 1065.56 948.993 1059.61 1031.66C1058.12 1074.24 1048.53 1123.25 1018.62 1157.57C1003.91 1174.73 988.205 1185.79 974.322 1201.46C961.761 1213.84 961.265 1225.39 964.075 1240.41C990.519 1327.86 1330.83 1303.77 1404.21 1278.03C1442.06 1269.28 1487.35 1246.02 1473.96 1202.45C1465.53 1173.58 1445.04 1148.33 1437.1 1118.63C1418.59 1035.46 1426.86 949.488 1425.87 864.836C1431.98 789.259 1417.27 676.555 1509.33 646.523C1585.03 623.751 1641.55 676.39 1655.93 746.026C1674.78 820.117 1663.87 924.571 1663.54 1000.31C1660.89 1047.18 1666.18 1088.43 1648.66 1134.8C1635.11 1163.02 1614.78 1177.7 1602.22 1191.07C1595.44 1197.83 1588 1205.42 1583.21 1211.03C1582.05 1212.35 1581.56 1213.34 1582.72 1211.36C1577.76 1244.53 1589.33 1263.18 1627.18 1271.76C1684.36 1292.22 2128.14 1312.19 2068.47 1195.03C2048.97 1164.67 2032.61 1140.08 2021.37 1101.8C2009.14 1036.12 2011.78 973.91 2008.97 908.234C2010.13 841.734 2006.82 779.689 2019.22 713.353C2037.73 637.777 2126.81 597.679 2196.56 630.351C2294.74 677.05 2276.06 835.133 2279.2 925.231C2278.54 966.979 2277.05 1008.73 2272.76 1051.8C2267.63 1088.76 2266.48 1123.08 2244.66 1159.22C2236.06 1171.1 2218.71 1197.01 2210.61 1207.4C2200.2 1249.32 2287.14 1268.13 2320.36 1275.39C2389.94 1290.74 2695.54 1302.78 2680.34 1200.14C2674.39 1192.55 2661.16 1175.06 2655.21 1167.47C2633.56 1140.41 2619.51 1106.58 2615.38 1072.42C2613.07 1029.68 2616.04 984.966 2616.04 944.207C2617.53 863.351 2619.02 776.718 2621.33 697.677C2622.65 660.549 2622.82 619.79 2613.23 583.982C2560.34 382.666 2279.37 392.732 2150.12 515.337C2116.24 541.409 2072.77 607.744 2029.47 559.89C2017.23 546.524 2008.97 531.673 2000.54 516.492C1949.97 420.784 1823.69 407.913 1727.33 431.51C1671.3 445.536 1617.26 472.268 1573.96 511.046C1547.68 533.323 1534.45 560.385 1501.56 577.712C1485.7 586.128 1460.41 579.527 1450 564.511C1415.62 525.733 1466.85 421.114 1404.71 416.494L1404.87 416.659Z" fill="black"/>
<path d="M964.074 678.042L842.924 1010.87C813.009 1093.38 782.763 1160.71 752.517 1213.02C722.271 1265.33 687.727 1309.71 649.217 1346.35C569.718 1422.09 473.856 1460.04 361.796 1460.04C271.223 1460.04 197.674 1436.28 141.479 1388.59C98.0105 1351.96 76.3589 1305.09 76.3589 1248.33C76.3589 1201.3 91.5646 1161.7 121.811 1129.68C152.057 1097.67 189.245 1081.5 233.374 1081.5C277.504 1081.5 312.874 1096.19 339.814 1125.56C352.706 1138.92 361.3 1150.97 365.598 1161.37C369.895 1171.76 376.341 1194.7 384.935 1230.18C391.712 1257.07 406.918 1270.44 430.883 1270.44C449.89 1270.44 465.757 1262.19 478.649 1245.69C491.541 1229.19 497.986 1208.73 497.986 1184.3C497.986 1155.59 482.12 1107.57 450.221 1040.41L228.912 570.123C205.607 521.279 188.253 490.751 176.518 478.375C164.949 466.164 139.165 451.148 99.3327 433.492C87.102 428.541 76.5241 418.97 67.5991 404.614C58.674 390.258 54.2114 376.397 54.2114 362.866C54.2114 308.411 108.423 271.448 216.681 251.977C288.908 239.105 371.217 232.67 463.608 232.67C528.398 232.67 579.635 239.435 616.988 252.802C667.233 270.458 692.355 300.821 692.355 343.559C692.355 358.905 685.248 376.892 671.199 397.684C657.812 417.32 651.035 434.647 651.035 449.993C651.035 465.339 654.176 479.86 660.621 495.867C667.067 511.708 680.62 538.605 701.445 576.558C724.75 619.297 745.244 640.749 762.929 640.749C781.936 640.749 801.439 621.937 821.769 584.314C842.098 546.691 852.015 510.553 852.015 475.735C852.015 447.683 844.412 424.746 829.041 406.924C805.737 379.367 794.167 355.935 794.167 336.298C794.167 305.111 814.992 280.194 856.643 261.547C898.293 242.901 953.992 233.66 1023.74 233.66C1153.48 233.66 1218.44 264.848 1218.44 327.223C1218.44 349.83 1211.83 367.981 1198.77 381.842C1185.55 395.538 1161.58 408.574 1126.71 420.785C1097.29 431.841 1073.99 450.158 1056.96 475.735C1030.02 516.658 999.113 584.149 964.24 678.372L964.074 678.042Z" fill="#F5F5F5"/>
<path d="M1013.66 696.193C975.644 804.277 938.456 912.526 897.467 1019.62C855.155 1131 806.233 1243.87 726.072 1336.12C645.912 1432.32 521.456 1499.31 395.018 1502.61C301.965 1507.89 198.5 1486.94 124.125 1424.56C9.42083 1339.91 11.5695 1145.03 139.992 1073.58C201.971 1039.59 279.157 1041.9 337.004 1083.48C357.664 1099.65 374.358 1118.13 387.58 1141.23C398.323 1162.85 402.29 1187.11 408.075 1209.55C414.025 1232.98 412.868 1243.87 433.693 1243.87C441.626 1243.38 448.072 1240.41 454.849 1233.64C490.053 1194.7 466.749 1142.55 450.551 1097.67C432.536 1053.28 401.463 986.452 381.134 941.733C340.806 857.246 224.119 593.059 180.981 515.173C161.974 476.064 123.464 464.019 87.1021 446.197C55.0379 427.22 37.6836 395.703 37.6836 359.235C48.0962 234.815 254.53 229.039 348.409 218.643C436.503 214.023 525.423 206.597 612.029 230.194C662.605 242.24 717.312 285.309 713.676 345.539C713.015 367.981 703.098 388.442 691.694 406.594C682.273 420.95 672.687 437.451 674.174 452.798C680.62 500.652 718.139 553.951 742.765 593.554C750.368 603.62 761.111 614.841 764.086 612.696C800.117 583.653 822.595 518.143 820.447 471.114C819.455 450.982 812.348 435.801 799.126 422.27L791.523 412.699C767.888 384.317 749.707 339.598 765.243 301.15C808.051 204.617 943.58 195.871 1031.01 192.901C1136.46 188.446 1291.66 220.788 1258.44 364.515C1249.51 405.769 1208.69 437.121 1173.65 451.807C1145.88 464.679 1129.85 466.659 1111.67 484.48C1095.64 500.487 1086.05 521.773 1075.31 542.565C1051.84 590.584 1032 643.553 1013.33 696.193H1013.66ZM914.656 659.89C945.894 583.653 975.974 502.797 1026.72 434.481C1051.34 400.653 1100.43 378.046 1135.8 366.66C1152.16 358.575 1165.55 355.11 1171.67 340.093C1173.81 334.648 1174.14 324.087 1173.15 319.467C1156.46 251.976 833.504 258.742 829.041 335.308C829.041 353.954 845.734 374.251 857.8 389.762C905.565 455.438 879.617 544.05 842.098 606.755C828.215 628.867 811.356 653.619 783.094 664.18C714.007 684.807 683.265 591.079 657.481 545.535C635.003 503.292 613.352 447.517 642.11 402.138C652.027 384.317 665.415 370.291 670.042 351.149C681.777 248.016 506.912 251.976 436.172 250.821C352.045 251.316 265.108 257.421 183.791 276.068C157.181 282.834 130.571 291.414 108.919 305.11C61.3185 331.348 59.1699 388.112 102.804 416.165C130.571 428.871 156.519 439.761 181.311 459.233C206.764 482.5 216.681 508.572 232.052 536.624C257.34 588.274 390.555 867.312 418.322 924.406C442.618 976.551 469.228 1026.22 493.028 1080.51C510.217 1121.6 531.042 1172.59 518.151 1220.11C505.589 1282.16 426.586 1325.88 377.002 1273.08C361.631 1255.59 358.326 1234.47 355.02 1222.92C350.557 1206.25 346.26 1189.91 340.475 1174.24C321.303 1136.28 282.132 1111.37 238.167 1112.19C104.952 1109.88 69.0867 1294.7 172.882 1363.18C234.201 1409.88 312.213 1420.77 389.563 1414.99C494.681 1407.9 585.915 1354.43 651.201 1272.59C717.643 1191.56 758.632 1088.43 795.655 982.326C833.173 873.912 874.328 766.983 914.821 659.725L914.656 659.89Z" fill="black"/>
<path d="M3333.68 785.795L2919.49 906.42C2901.31 911.7 2894.54 922.261 2899.17 938.103C2910.24 976.221 2941.48 1006.09 2992.88 1027.87C3044.12 1049.49 3093.53 1053.45 3141.13 1039.59C3169.4 1031.34 3198.98 1016.81 3230.22 996.022C3261.46 975.231 3285.92 953.614 3303.6 931.172C3319.47 911.205 3333.19 899.654 3345.09 896.189C3360.29 891.734 3378.14 896.684 3398.31 911.205C3418.47 925.727 3431.53 942.888 3437.31 962.855C3449.71 1005.1 3435.17 1053.61 3393.68 1108.23C3320.63 1205.26 3222.95 1271.6 3100.81 1307.24C2978.66 1342.88 2863.46 1337.6 2759.17 1290.24C2708.27 1266.81 2662.49 1234.14 2621.33 1191.89C2567.28 1135.62 2529.6 1070.94 2508.11 997.673C2479.36 899.159 2483.32 801.801 2520.34 705.763C2552.08 622.597 2603.15 552.796 2673.23 496.031C2725.79 453.293 2786.94 421.775 2857.02 401.478C2968.58 368.971 3072.87 372.931 3169.56 413.524C3218.15 433.821 3260.8 462.038 3297.65 498.506C3339.63 539.76 3367.57 583.818 3381.29 630.682C3392.36 668.8 3393.68 702.298 3384.92 731.341C3376.16 760.383 3359.14 778.534 3333.85 785.795H3333.68ZM2894.37 735.301L2983.46 709.394C3020.98 698.503 3034.86 675.731 3024.61 641.078C3015.36 609.395 2998.66 586.294 2974.7 571.607C2950.73 556.921 2923.96 553.951 2894.54 562.532C2861.65 572.102 2839.5 592.564 2828.26 623.917C2817.68 653.124 2816.03 680.021 2823.14 704.608C2828.26 722.265 2836.19 733.321 2846.77 737.776C2857.35 742.396 2873.22 741.571 2894.37 735.301Z" fill="white"/>
<path d="M3343.44 818.798C3264.6 843.55 3063.12 906.915 2987.26 931.337L2931.06 949.324C2930.24 949.654 2932.06 949.819 2936.35 945.364C2941.81 939.753 2943.63 930.347 2942.63 925.562C2953.38 956.419 2982.8 973.581 3021.97 987.937C3110.23 1021.27 3198.65 969.456 3259.8 905.925C3278.15 884.144 3295.67 862.362 3326.08 850.646C3372.19 834.804 3415.5 858.897 3446.07 888.269C3501.94 938.268 3497.81 1029.85 3461.94 1088.76C3324.92 1318.79 3006.6 1433.64 2758.35 1324.73C2405.97 1162.52 2371.43 688.932 2682.98 467.814C2822.81 369.136 3010.4 327.718 3173.69 391.083C3276.5 430.191 3370.38 509.233 3408.06 615.501C3434.67 684.642 3428.06 793.386 3343.27 818.798H3343.44ZM3324.1 752.958C3351.53 746.192 3358.48 713.519 3358.81 686.622C3357.32 611.211 3311.04 544.381 3255.34 495.041C2953.05 241.25 2468.45 523.754 2512.91 909.886C2538.03 1150.31 2770.08 1333.97 3009.9 1288.59C3143.12 1266.48 3268.73 1198.16 3349.72 1089.75C3381.45 1049.65 3422.94 978.366 3363.27 946.519C3355.34 941.733 3353.02 944.704 3359.8 943.053C3361.78 942.393 3360.79 942.558 3359.3 943.878C3355.34 946.849 3346.08 957.08 3341.29 963.515C3259.97 1061.2 3114.19 1132.16 2988.75 1077.7C2934.7 1057.08 2879.83 1020.28 2858.84 961.205C2849.25 937.938 2850.08 906.75 2868.59 886.949C2885.94 868.797 2898.5 866.652 2918.01 861.207C2927.26 858.731 2953.54 851.801 2963.13 849.326C3039.65 829.359 3245.09 774.079 3324.1 752.958Z" fill="black"/>
<path d="M2884.79 702.463C2913.38 690.912 2941.15 676.061 2969.74 663.85C2972.88 662.53 2978.33 659.23 2979.33 657.745C2980.48 656.59 2980.15 656.425 2979.33 657.58C2977.34 659.89 2978.83 664.84 2979 658.57C2974.7 604.775 2929.08 569.132 2876.03 594.214C2837.85 610.716 2818.51 687.777 2855.86 713.189C2863.46 709.724 2872.55 708.239 2884.79 702.298V702.463ZM2903.96 768.139C2867.93 776.389 2818.34 770.284 2806.94 725.73C2793.22 666.985 2804.46 599.33 2851.9 558.736C2905.45 513.853 2990.23 516.823 3037.34 571.113C3070.39 608.571 3094.53 667.975 3060.15 716.655C3022.63 766.819 2957.84 755.928 2903.96 768.139Z" fill="black"/>
<path d="M3759.11 579.032C3745.73 549.989 3723.58 535.468 3693 535.468C3674.66 535.468 3658.29 540.914 3643.91 551.97C3629.53 563.025 3611.68 583.157 3590.2 612.53C3535.66 690.086 3478.8 728.864 3419.46 728.864C3389.55 728.864 3364.92 719.953 3346.08 702.297C3327.07 684.641 3317.65 661.374 3317.65 632.661C3317.65 603.949 3329.39 573.916 3353.02 544.709C3376.49 515.336 3408.56 489.759 3449.05 467.648C3559.79 408.903 3675.48 379.695 3796.14 379.695C3902.58 379.695 3992.98 406.593 4067.03 460.387C4106.2 489.099 4133.64 521.937 4149.17 558.9" fill="white"/>
<path d="M3744.07 585.963C3726.39 547.679 3676.8 546.854 3650.36 576.557C3594.83 639.592 3561.6 723.584 3462.44 754.276C3339.8 791.075 3241.13 679.195 3296.99 563.191C3357.32 446.031 3489.54 395.867 3608.05 360.554C3745.89 325.571 3895.63 321.116 4027.53 384.316C4083.06 414.183 4192.64 474.743 4164.05 552.3L4133.64 565.171C4094.63 553.95 4084.71 537.119 4060.09 513.192C3944.89 411.708 3773 409.233 3629.04 442.566C3533.67 469.298 3373.52 519.627 3353.68 628.701C3346.74 681.67 3401.78 706.258 3446.41 693.882C3471.69 688.271 3496.82 672.925 3519.13 652.958C3580.78 598.174 3633.01 475.403 3734.82 525.898C3754.16 536.294 3766.88 554.445 3773.99 571.771L3744.07 585.633V585.963Z" fill="black"/>
</svg>
